<svg width="141" height="72" viewBox="0 0 141 72" fill="none" xmlns="http://www.w3.org/2000/svg">
<g clip-path="url(#clip0_459_3775)">
<path fill-rule="evenodd" clip-rule="evenodd" d="M48.639 13.4031L70.3005 2.14837L92.3706 13.4176L81.9519 19.0035L70.3001 25.2507L63.6702 21.6456C63.1634 21.37 62.5259 21.5522 62.2467 22.0526C61.9675 22.553 62.152 23.1822 62.6592 23.4578L69.59 27.2267C70.028 27.4649 70.5587 27.4664 70.998 27.2309L81.4041 21.6516V28.5523L70.3013 35.5445L59.6077 28.692V20.6175L71.0562 14.8707C71.8815 14.4564 72.2106 13.46 71.791 12.6451C71.3714 11.8303 70.3621 11.5056 69.5363 11.9199L57.4004 18.0118C56.6974 18.3647 56.2544 19.0774 56.2544 19.856V36.3609C56.2544 37.275 57.0051 38.016 57.931 38.016C58.8569 38.016 59.6077 37.275 59.6077 36.3609V31.1586L69.4995 37.4973C69.9819 37.8064 70.6027 37.8089 71.0872 37.5036L82.8221 30.1136C83.2442 29.8476 83.4999 29.3872 83.4999 28.8926V20.5279L94.4132 14.677C95.4472 14.1224 95.4322 12.6517 94.3868 12.1179L70.972 0.161892C70.5461 -0.0556391 70.0393 -0.0538569 69.6147 0.16667L46.6149 12.1168C45.5741 12.6576 45.5687 14.1273 46.6057 14.6753L53.4485 18.2914C53.9586 18.561 54.5936 18.3712 54.8669 17.8675C55.1402 17.3638 54.9478 16.7369 54.4377 16.4673L48.639 13.4031Z" fill="#CBA37C"/>
<path d="M2.30743 67.3948V54.9397H4.65055V65.4376H11.2473V67.3948H2.30743ZM15.26 60.1174H21.5324V62.0213H15.26V60.1174ZM15.4403 65.4554H22.5597V67.3948H13.0972V54.9397H22.3074V56.8791H15.4403V65.4554ZM31.0116 67.5728C30.0503 67.5728 29.1551 67.4184 28.326 67.1101C27.5089 66.7899 26.794 66.345 26.1812 65.7757C25.5803 65.1943 25.1117 64.5123 24.7753 63.7294C24.4388 62.9466 24.2706 62.0925 24.2706 61.1672C24.2706 60.242 24.4388 59.3879 24.7753 58.605C25.1117 57.8221 25.5864 57.146 26.1992 56.5766C26.812 55.9952 27.5269 55.5504 28.344 55.2421C29.1611 54.9219 30.0563 54.7617 31.0296 54.7617C32.063 54.7617 33.0062 54.9397 33.8594 55.2955C34.7125 55.6394 35.4334 56.1554 36.0222 56.8435L34.5082 58.2492C34.0516 57.763 33.5409 57.4009 32.9762 57.1638C32.4114 56.9147 31.7986 56.7901 31.1377 56.7901C30.4769 56.7901 29.87 56.8969 29.3173 57.1104C28.7766 57.3239 28.3019 57.6264 27.8934 58.0179C27.4969 58.4093 27.1845 58.8719 26.9562 59.4057C26.7399 59.9395 26.6318 60.5267 26.6318 61.1672C26.6318 61.8078 26.7399 62.395 26.9562 62.9288C27.1845 63.4625 27.4969 63.9252 27.8934 64.3166C28.3019 64.7081 28.7766 65.0106 29.3173 65.2241C29.87 65.4376 30.4769 65.5443 31.1377 65.5443C31.7986 65.5443 32.4114 65.4256 32.9762 65.1885C33.5409 64.9394 34.0516 64.5657 34.5082 64.0675L36.0222 65.491C35.4334 66.1671 34.7125 66.6831 33.8594 67.039C33.0062 67.3948 32.057 67.5728 31.0116 67.5728ZM40.6859 67.3948V56.8969H36.5044V54.9397H47.2105V56.8969H43.029V67.3948H40.6859ZM54.7047 67.5728C53.7197 67.5728 52.8122 67.4126 51.9831 67.0923C51.154 66.7721 50.4331 66.3272 49.8202 65.7579C49.2074 65.1765 48.7329 64.5003 48.3963 63.7294C48.0602 62.9466 47.8917 62.0925 47.8917 61.1672C47.8917 60.242 48.0602 59.3937 48.3963 58.6228C48.7329 57.8399 49.2074 57.1638 49.8202 56.5944C50.4331 56.013 51.154 55.5624 51.9831 55.2421C52.8122 54.9219 53.7134 54.7617 54.6867 54.7617C55.6722 54.7617 56.5733 54.9219 57.3903 55.2421C58.2194 55.5624 58.9404 56.013 59.5532 56.5944C60.166 57.1638 60.6409 57.8399 60.9771 58.6228C61.3137 59.3937 61.4817 60.242 61.4817 61.1672C61.4817 62.0925 61.3137 62.9466 60.9771 63.7294C60.6409 64.5123 60.166 65.1885 59.5532 65.7579C58.9404 66.3272 58.2194 66.7721 57.3903 67.0923C56.5733 67.4126 55.678 67.5728 54.7047 67.5728ZM54.6867 65.5443C55.3238 65.5443 55.9123 65.4376 56.4531 65.2241C56.9938 65.0106 57.4624 64.7081 57.8589 64.3166C58.2554 63.9132 58.5619 63.4505 58.7781 62.9288C59.0066 62.395 59.1206 61.8078 59.1206 61.1672C59.1206 60.5267 59.0066 59.9453 58.7781 59.4235C58.5619 58.8897 58.2554 58.4271 57.8589 58.0357C57.4624 57.6322 56.9938 57.3239 56.4531 57.1104C55.9123 56.8969 55.3238 56.7901 54.6867 56.7901C54.05 56.7901 53.4611 56.8969 52.9204 57.1104C52.3918 57.3239 51.9232 57.6322 51.5145 58.0357C51.118 58.4271 50.8057 58.8897 50.5772 59.4235C50.361 59.9453 50.2528 60.5267 50.2528 61.1672C50.2528 61.7958 50.361 62.3772 50.5772 62.911C50.8057 63.4448 51.118 63.9132 51.5145 64.3166C51.911 64.7081 52.3796 65.0106 52.9204 65.2241C53.4611 65.4376 54.05 65.5443 54.6867 65.5443ZM63.9657 67.3948V54.9397H69.1566C70.2741 54.9397 71.2293 55.1176 72.0224 55.4734C72.8272 55.8293 73.4463 56.3395 73.8789 57.0036C74.3114 57.6678 74.5277 58.4569 74.5277 59.3701C74.5277 60.2834 74.3114 61.0725 73.8789 61.7366C73.4463 62.3892 72.8272 62.8932 72.0224 63.249C71.2293 63.5929 70.2741 63.765 69.1566 63.765H65.2634L66.3088 62.7152V67.3948H63.9657ZM72.2207 67.3948L69.0304 62.8754H71.5357L74.744 67.3948H72.2207ZM66.3088 62.9643L65.2634 61.8612H69.0484C70.0817 61.8612 70.8567 61.6419 71.3735 61.2028C71.9021 60.7638 72.1666 60.153 72.1666 59.3701C72.1666 58.5752 71.9021 57.9645 71.3735 57.5374C70.8567 57.1104 70.0817 56.8969 69.0484 56.8969H65.2634L66.3088 55.7581V62.9643ZM77.1492 67.3948V54.9397H79.4923V67.3948H77.1492ZM88.3299 67.5728C86.5996 67.5728 85.2419 67.0923 84.2565 66.1315C83.2832 65.1707 82.7965 63.7828 82.7965 61.9679V54.9397H85.1396V61.879C85.1396 63.1601 85.4163 64.0911 85.9687 64.6725C86.5338 65.2539 87.3268 65.5443 88.3479 65.5443C89.3694 65.5443 90.1566 65.2539 90.709 64.6725C91.2619 64.0911 91.5381 63.1601 91.5381 61.879V54.9397H93.8452V61.9679C93.8452 63.7828 93.3527 65.1707 92.3672 66.1315C91.394 67.0923 90.0484 67.5728 88.3299 67.5728ZM97.1268 67.3948V54.9397H99.0554L104.571 64.0319H103.561L108.987 54.9397H110.915L110.933 67.3948H108.716L108.698 58.3737H109.167L104.553 65.9714H103.507L98.8211 58.3737H99.3618V67.3948H97.1268ZM122.603 67.5728C121.714 67.5728 120.842 67.4482 119.989 67.1991C119.148 66.938 118.439 66.5821 117.862 66.1315L118.854 64.3344C119.31 64.7023 119.863 64.9986 120.512 65.2241C121.173 65.4496 121.858 65.5621 122.567 65.5621C123.396 65.5621 124.045 65.39 124.513 65.0461C124.994 64.7023 125.234 64.2396 125.234 63.6583C125.234 63.2668 125.132 62.923 124.928 62.6263C124.735 62.3296 124.387 62.1045 123.882 61.9501C123.39 61.7958 122.711 61.7188 121.846 61.7188H118.8L119.448 54.9397H126.856V56.8791H120.314L121.539 55.7759L121.053 60.847L119.827 59.7616H122.368C123.618 59.7616 124.621 59.9275 125.378 60.2598C126.147 60.5801 126.706 61.0307 127.055 61.6121C127.415 62.1814 127.595 62.834 127.595 63.5693C127.595 64.293 127.415 64.9572 127.055 65.5621C126.694 66.1671 126.141 66.6533 125.396 67.0212C124.663 67.389 123.732 67.5728 122.603 67.5728ZM128.766 64.5657V62.9643L134.985 54.9397H137.49L131.362 62.9643L130.19 62.6085H140.194V64.5657H128.766ZM135.688 67.3948V64.5657L135.76 62.6085V60.0997H137.959V67.3948H135.688Z" fill="white"/>
</g>
<defs>
<clipPath id="clip0_459_3775">
<rect width="140" height="72" fill="white" transform="translate(0.5)"/>
</clipPath>
</defs>
</svg>
