<svg width="0" height="0" class="hidden">
    <symbol fill="none" xmlns="http://www.w3.org/2000/svg" viewBox="0 0 47 47" id="extension">
        <path fill-rule="evenodd" clip-rule="evenodd"
              d="M15.269 3.00677C20.2082 2.84372 24.8205 5.64333 28.071 9.47508C31.119 13.0682 32.3018 17.8985 31.9356 22.6538C31.5977 27.0421 28.9479 30.532 26.1905 33.8966C23.0517 37.7266 20.1295 43.2604 15.269 42.9905C10.4353 42.7221 8.41338 36.6984 5.46555 32.7457C3.10751 29.5839 0.491481 26.6198 0.102336 22.6538C-0.330016 18.2474 0.58599 13.7614 3.2626 10.2941C6.26746 6.40155 10.4417 3.16613 15.269 3.00677Z"
              fill="#CBA37C" fill-opacity="0.1"></path>
        <path d="M17.625 7.83329C17.625 5.67018 19.3786 3.91663 21.5417 3.91663C23.7048 3.91663 25.4583 5.67018 25.4583 7.83329V11.75H35.25V21.5416H39.1667C41.3298 21.5416 43.0833 23.2952 43.0833 25.4583C43.0833 27.6214 41.3298 29.375 39.1667 29.375H35.25V39.1666H25.4583V35.25C25.4583 33.0868 23.7048 31.3333 21.5417 31.3333C19.3786 31.3333 17.625 33.0868 17.625 35.25V39.1666H7.83334V29.375H11.75C13.9131 29.375 15.6667 27.6214 15.6667 25.4583C15.6667 23.2952 13.9131 21.5416 11.75 21.5416H7.83334V11.75H17.625V7.83329Z"
              stroke="#CBA37C" stroke-width="1.5"></path>
    </symbol>
    <symbol fill="none" xmlns="http://www.w3.org/2000/svg" viewBox="0 0 47 47" id="people">
        <g id="people">
            <path id="Vector" fill-rule="evenodd" clip-rule="evenodd"
                  d="M25.9546 6.09385C30.277 6.49805 33.9407 9.03883 36.9179 12.2459C39.7899 15.3397 41.9442 19.1262 41.9989 23.3772C42.0544 27.6801 39.9361 31.5098 37.2084 34.8034C34.1514 38.4947 30.656 42.0611 25.9546 42.7501C20.611 43.5332 14.6986 42.5579 10.9042 38.6582C7.12393 34.7731 6.75084 28.8267 7.1049 23.3772C7.43226 18.3387 9.07604 13.3717 12.767 9.98748C16.299 6.74896 21.2156 5.65068 25.9546 6.09385Z"
                  fill="#CBA37C" fill-opacity="0.1"></path>
            <path id="Stroke 1 Copy"
                  d="M1.95834 35.25C1.95834 30.8438 7.83334 30.8438 10.7708 27.9063C12.2396 26.4375 7.83334 26.4375 7.83334 19.0938C7.83334 14.1984 9.79119 11.75 13.7083 11.75C17.6255 11.75 19.5833 14.1984 19.5833 19.0938C19.5833 26.4375 15.1771 26.4375 16.6458 27.9063C19.5833 30.8438 25.4583 30.8438 25.4583 35.25"
                  stroke="#CBA37C" stroke-width="1.5" stroke-linecap="round"></path>
            <path id="Stroke 1 Copy 2"
                  d="M23.4897 31.8094C24.6001 31.0442 26.0415 30.4932 27.4208 29.8289C28.4992 29.3095 29.5396 28.7208 30.3542 27.9063C31.8229 26.4375 27.4167 26.4375 27.4167 19.0938C27.4167 14.1984 29.3745 11.75 33.2917 11.75C37.2088 11.75 39.1667 14.1984 39.1667 19.0938C39.1667 26.4375 34.7604 26.4375 36.2292 27.9063C39.1667 30.8438 45.0417 30.8438 45.0417 35.25"
                  stroke="#CBA37C" stroke-width="1.5" stroke-linecap="round"></path>
        </g>
    </symbol>
    <symbol fill="none" xmlns="http://www.w3.org/2000/svg" viewBox="0 0 47 48" id="alarm">
        <g id="alarm">
            <path id="Vector" fill-rule="evenodd" clip-rule="evenodd"
                  d="M16.8391 12.054C21.5102 12.3732 25.4814 15.0858 28.7828 18.4449C32.0728 21.7924 35.0777 25.8102 34.9985 30.5307C34.9202 35.1955 31.7257 38.9985 28.3838 42.2128C25.1483 45.3248 21.3017 48.1083 16.8391 47.9968C12.456 47.8872 8.89162 44.8458 5.85066 41.6498C2.88315 38.531 0.683308 34.8346 0.220131 30.5307C-0.304591 25.6548 -0.097538 20.3212 3.16499 16.694C6.52895 12.954 11.8527 11.7132 16.8391 12.054Z"
                  fill="#CBA37C" fill-opacity="0.1"></path>
            <path id="Oval"
                  d="M39.25 25.5C39.25 34.1985 32.1985 41.25 23.5 41.25C14.8015 41.25 7.75 34.1985 7.75 25.5C7.75 16.8015 14.8015 9.75 23.5 9.75C32.1985 9.75 39.25 16.8015 39.25 25.5Z"
                  stroke="#CBA37C" stroke-width="1.5"></path>
            <path id="Path 5" d="M24 17V25.125L28 30" stroke="#CBA37C" stroke-width="1.5" stroke-linecap="round"></path>
            <path id="Path 23" d="M35 7L40 12" stroke="#CBA37C" stroke-width="1.5" stroke-linecap="round"></path>
            <path id="Path 23_2" d="M7 12L12 7" stroke="#CBA37C" stroke-width="1.5" stroke-linecap="round"></path>
        </g>
    </symbol>
    <symbol fill="none" xmlns="http://www.w3.org/2000/svg" viewBox="0 0 47 47" id="lamp">
        <path fill-rule="evenodd" clip-rule="evenodd"
              d="M16.8136 8.00167C20.6775 8.09873 22.6333 12.5039 25.3107 15.3317C27.8939 18.0602 31.457 20.1971 31.9149 23.9516C32.4119 28.0262 30.6949 32.2325 27.7102 35.0056C24.8265 37.6849 20.7223 38.1001 16.8136 37.9824C13.0491 37.869 9.37891 36.8851 6.54554 34.368C3.50573 31.6676 0.738468 28.0406 1.01975 23.9516C1.29143 20.0019 5.11916 17.6873 7.88511 14.894C10.6404 12.1115 12.927 7.90403 16.8136 8.00167Z"
              fill="#CBA37C" fill-opacity="0.1"></path>
        <path d="M17.2273 32.1176H29.7727M20.3636 39.7353V40.8235C20.3636 42.0256 21.2998 43 22.4545 43H24.5455C25.7002 43 26.6364 42.0256 26.6364 40.8235V39.7353M35 17.9706C35 22.1929 33.7409 24.4493 31.7113 27.4095C30.4572 29.2388 29.7727 31.4199 29.7727 33.6672V36.4706C29.7727 37.6726 28.8366 38.6471 27.6818 38.6471H19.3182C18.1634 38.6471 17.2273 37.6726 17.2273 36.4706V33.6672C17.2273 31.4199 16.5428 29.2388 15.2887 27.4095C13.2591 24.4493 12 22.1929 12 17.9706C12 11.4412 17.2273 6 23.5 6C29.7727 6 35 11.4412 35 17.9706Z"
              stroke="#CBA37C" stroke-width="1.5"></path>
    </symbol>
    <symbol fill="none" xmlns="http://www.w3.org/2000/svg" viewBox="0 0 20 11" id="arrow">
        <path d="M19 10L10 2L1 10" stroke="#CBA37C" stroke-width="1.5" stroke-linecap="round"></path>
    </symbol>
    <symbol fill="none" xmlns="http://www.w3.org/2000/svg" viewBox="0 0 24 24" id="history">
        <path d="M1 12L3 14L5 12" stroke="#CBA37C" stroke-width="1.5" stroke-linecap="round"></path>
        <path d="M12 7V12L15 15" stroke="#CBA37C" stroke-width="1.5" stroke-linecap="round"></path>
        <path d="M12 21C16.9706 21 21 16.9706 21 12C21 7.02944 16.9706 3 12 3C7.02944 3 3 7.02944 3 12C3 11.963 3 13 3 13"
              stroke="#CBA37C" stroke-width="1.5" stroke-linecap="round"></path>
    </symbol>
    <symbol fill="none" xmlns="http://www.w3.org/2000/svg" viewBox="0 0 24 24" id="calendar">
        <path d="M3 5H21V21H3V5Z" stroke="#CBA37C" stroke-width="1.5" stroke-linejoin="round"></path>
        <path d="M21 9H3" stroke="#CBA37C" stroke-width="1.5" stroke-linecap="round"></path>
        <path d="M7 5V3" stroke="#CBA37C" stroke-width="1.5" stroke-linecap="round"></path>
        <path d="M17 5V3" stroke="#CBA37C" stroke-width="1.5" stroke-linecap="round"></path>
    </symbol>
    <symbol fill="none" xmlns="http://www.w3.org/2000/svg" viewBox="0 0 13 13" id="phone">
        <path d="M7.51805 10.7175L8.95525 9.2803C9.29791 8.93764 9.83694 8.88998 10.2344 9.16719L12.149 10.5025C12.5412 10.776 12.5908 11.3376 12.2527 11.6757V11.6757C11.7071 12.2213 10.9235 12.4583 10.1924 12.2117C8.83339 11.7534 6.54837 10.7625 4.63866 8.85281C2.72896 6.9431 1.73812 4.65808 1.27978 3.29907C1.0332 2.56793 1.27012 1.78438 1.81573 1.23877V1.23877C2.15386 0.900641 2.71544 0.950297 2.98899 1.34252L4.32428 3.25706C4.6015 3.65453 4.55383 4.19356 4.21117 4.53622L2.77398 5.97342"
              stroke="#CBA37C" stroke-linecap="round"></path>
    </symbol>
    <symbol fill="none" xmlns="http://www.w3.org/2000/svg" viewBox="0 0 14 10" id="mail">
        <rect x="0.571442" y="0.5" width="12.8571" height="9" stroke="#CBA37C" stroke-linecap="round"
              stroke-linejoin="round"></rect>
        <path d="M0.571442 0.5L7.00001 6.28572L13.4286 0.5" stroke="#CBA37C"></path>
        <path d="M0.571442 9.50028L5.07144 4.35742" stroke="#CBA37C"></path>
        <path fill-rule="evenodd" clip-rule="evenodd" d="M13.4286 9.50028L8.92859 4.35742L13.4286 9.50028Z"
              stroke="#CBA37C"></path>
    </symbol>
</svg>
