<svg width="20" height="20" viewBox="0 0 20 20" fill="none" xmlns="http://www.w3.org/2000/svg">
<path d="M12.1149 10L18.5649 3.565C18.8474 3.28254 19.006 2.89945 19.006 2.5C19.006 2.10055 18.8474 1.71746 18.5649 1.435C18.2825 1.15254 17.8994 0.993862 17.4999 0.993862C17.1005 0.993862 16.7174 1.15254 16.4349 1.435L9.99991 7.885L3.56491 1.435C3.28245 1.15254 2.89936 0.993862 2.49991 0.993862C2.10046 0.993862 1.71736 1.15254 1.43491 1.435C1.15245 1.71746 0.993771 2.10055 0.993771 2.5C0.993771 2.89945 1.15245 3.28254 1.43491 3.565L7.88491 10L1.43491 16.435C1.29432 16.5744 1.18272 16.7403 1.10657 16.9231C1.03042 17.1059 0.991211 17.302 0.991211 17.5C0.991211 17.698 1.03042 17.8941 1.10657 18.0769C1.18272 18.2597 1.29432 18.4256 1.43491 18.565C1.57435 18.7056 1.74025 18.8172 1.92304 18.8933C2.10583 18.9695 2.30189 19.0087 2.49991 19.0087C2.69793 19.0087 2.89398 18.9695 3.07677 18.8933C3.25956 18.8172 3.42546 18.7056 3.56491 18.565L9.99991 12.115L16.4349 18.565C16.5744 18.7056 16.7403 18.8172 16.923 18.8933C17.1058 18.9695 17.3019 19.0087 17.4999 19.0087C17.6979 19.0087 17.894 18.9695 18.0768 18.8933C18.2596 18.8172 18.4255 18.7056 18.5649 18.565C18.7055 18.4256 18.8171 18.2597 18.8932 18.0769C18.9694 17.8941 19.0086 17.698 19.0086 17.5C19.0086 17.302 18.9694 17.1059 18.8932 16.9231C18.8171 16.7403 18.7055 16.5744 18.5649 16.435L12.1149 10Z" fill="#CBA37C"/>
</svg>
