<?xml version="1.0" standalone="no"?>
<!DOCTYPE svg PUBLIC "-//W3C//DTD SVG 20010904//EN"
 "http://www.w3.org/TR/2001/REC-SVG-20010904/DTD/svg10.dtd">
<svg version="1.0" xmlns="http://www.w3.org/2000/svg"
 width="380.000000pt" height="380.000000pt" viewBox="0 0 380.000000 380.000000"
 preserveAspectRatio="xMidYMid meet">
<metadata>
Created by potrace 1.14, written by Peter Selinger 2001-2017
</metadata>
<g transform="translate(0.000000,380.000000) scale(0.100000,-0.100000)"
fill="#000000" stroke="none">
<path d="M1805 3366 c-33 -18 -105 -56 -160 -86 -55 -29 -131 -70 -170 -90
-38 -21 -110 -59 -160 -85 -49 -26 -121 -65 -160 -85 -38 -21 -110 -59 -160
-85 -49 -26 -112 -60 -140 -75 -27 -15 -88 -48 -135 -72 -47 -25 -120 -64
-162 -87 -43 -22 -113 -60 -155 -82 -43 -23 -112 -60 -153 -82 -41 -23 -100
-54 -131 -69 -89 -45 -117 -90 -99 -158 13 -47 18 -50 300 -203 36 -19 97 -51
135 -72 39 -21 89 -48 112 -61 69 -40 133 -26 147 32 13 52 -10 80 -108 132
-50 27 -111 60 -136 74 -25 14 -85 46 -135 73 -94 50 -117 65 -97 65 6 0 60
26 119 59 140 75 234 126 358 191 55 29 123 65 150 80 28 15 95 51 150 80 55
29 123 65 150 80 28 15 91 49 140 75 112 59 217 115 320 170 44 24 123 66 175
93 l95 51 155 -81 c85 -44 187 -98 225 -118 39 -21 129 -68 200 -105 72 -37
171 -89 220 -115 50 -26 133 -70 185 -98 52 -27 163 -85 245 -127 83 -43 173
-90 200 -105 28 -15 96 -51 153 -80 56 -29 102 -56 102 -60 0 -3 -24 -19 -52
-34 -29 -16 -78 -42 -108 -59 -105 -58 -136 -75 -295 -162 -88 -49 -185 -101
-215 -118 -30 -16 -68 -38 -85 -47 -16 -10 -61 -35 -100 -55 -38 -21 -153 -84
-255 -140 -102 -56 -216 -119 -255 -140 -38 -21 -125 -69 -192 -107 -68 -37
-125 -68 -128 -68 -2 0 -71 37 -152 83 -81 46 -155 86 -163 90 -8 4 -24 13
-35 20 -93 56 -179 97 -204 97 -41 0 -80 -47 -73 -88 5 -38 29 -60 112 -104
36 -20 82 -45 103 -57 68 -39 101 -57 162 -91 33 -18 92 -51 130 -73 122 -71
107 -75 544 167 206 114 387 214 402 222 l29 15 0 -271 0 -270 -167 -109 c-93
-60 -213 -138 -268 -174 -55 -35 -171 -110 -258 -166 -87 -57 -162 -101 -166
-99 -5 2 -135 86 -290 188 -154 102 -291 192 -305 200 -13 8 -45 30 -70 48
-26 17 -50 32 -54 33 -4 0 -27 15 -52 33 l-45 33 0 318 0 319 80 41 c512 262
806 415 823 428 45 36 56 117 23 170 -24 39 -58 57 -108 57 -33 0 -240 -101
-658 -320 -49 -26 -149 -77 -220 -113 -139 -70 -170 -95 -188 -149 -9 -25 -12
-220 -12 -714 0 -638 1 -682 18 -707 57 -87 177 -84 223 5 14 27 17 66 16 250
0 164 2 216 11 211 7 -4 95 -61 197 -128 102 -67 265 -174 362 -238 212 -139
224 -146 264 -141 20 2 168 91 405 245 523 338 562 364 579 384 12 15 16 78
20 373 l5 355 425 234 c234 128 433 244 442 256 11 14 18 40 18 73 0 72 8 65
-290 221 -63 33 -169 89 -235 123 -217 113 -518 271 -612 321 -210 111 -445
234 -608 319 -67 36 -136 64 -155 66 -25 1 -54 -8 -95 -30z"/>
</g>
</svg>
